<svg width="126" height="163" viewBox="0 0 126 163" fill="none" xmlns="http://www.w3.org/2000/svg">
<path d="M62.5461 101.762C83.9161 101.762 101.24 84.349 101.24 62.8686C101.24 41.3885 83.9161 23.9754 62.5461 23.9754C41.1761 23.9754 23.8523 41.3885 23.8523 62.8686V81.267C23.8523 83.1884 22.9929 85.0071 21.5118 86.2216L2.59518 101.729C1.5565 102.581 0 101.838 0 100.49V62.8686C0 28.1473 28.0028 0 62.5461 0C97.0896 0 125.092 28.1473 125.092 62.8686C125.092 97.5906 97.0896 125.738 62.5461 125.738C58.8119 125.738 55.1538 125.409 51.5997 124.778C50.6612 124.611 49.6923 124.848 48.9545 125.455L5.19365 161.427C3.11699 163.134 0 161.649 0 158.953V135.332C0 134.852 0.214854 134.397 0.585127 134.094L23.8523 115.019V115.117L33.8547 106.895C40.2073 101.674 48.2741 99.842 55.746 101.168C57.9371 101.556 60.2078 101.762 62.5461 101.762Z" fill="url(#paint0_radial_175_297)"/>
<defs>
<radialGradient id="paint0_radial_175_297" cx="0" cy="0" r="1" gradientUnits="userSpaceOnUse" gradientTransform="translate(62.5461 60.7377) rotate(139.959) scale(86.5433 86.6213)">
<stop stop-color="#3087C5"/>
<stop offset="1" stop-color="#2B2BBA"/>
</radialGradient>
</defs>
</svg>
